inDegrees=no
num_controls=7
num_derivatives=13
num_iterations=47
num_multipliers=7
num_parameters=0
num_slacks=7
num_states=26
objective=0.513644
objective_accelerations=0.002677
objective_balance=0.005776
objective_effort=0.017160
objective_height=0.461868
objective_ligament=0.026162
solver_duration=536.119185
status=Solve_Succeeded
success=true
DataType=double
version=3
OpenSimVersion=4.5
endheader
time	/jointset/ground_pelvis/pelvis_tilt/value	/jointset/ground_pelvis/pelvis_tx/value	/jointset/ground_pelvis/pelvis_ty/value	/jointset/hip_r/hip_flexion_r/value	/jointset/hip_r/hip_adduction_r/value	/jointset/hip_r/hip_rotation_r/value	/jointset/back/lumbar_extension/value	/jointset/patellofemoral_r/patellar_flexion_r/value	/jointset/knee_r/knee_flexion_r/value	/jointset/knee_r/knee_adduction_r/value	/jointset/knee_r/knee_rotation_r/value	/jointset/ankle_r/ankle_angle_r/value	/jointset/subtalar_r/subtalar_angle_r/value	/jointset/ground_pelvis/pelvis_tilt/speed	/jointset/ground_pelvis/pelvis_tx/speed	/jointset/ground_pelvis/pelvis_ty/speed	/jointset/hip_r/hip_flexion_r/speed	/jointset/hip_r/hip_adduction_r/speed	/jointset/hip_r/hip_rotation_r/speed	/jointset/back/lumbar_extension/speed	/jointset/patellofemoral_r/patellar_flexion_r/speed	/jointset/knee_r/knee_flexion_r/speed	/jointset/knee_r/knee_adduction_r/speed	/jointset/knee_r/knee_rotation_r/speed	/jointset/ankle_r/ankle_angle_r/speed	/jointset/subtalar_r/subtalar_angle_r/speed	/forceset/tau_hip_flexion_r	/forceset/tau_hip_adduction_r	/forceset/tau_hip_rotation_r	/forceset/tau_knee_flexion_r	/forceset/tau_ankle_angle_r	/forceset/tau_subtalar_angle_r	/forceset/tau_lumbar_extension	lambda_cid13_p0	lambda_cid14_p0	lambda_cid14_p1	lambda_cid14_p2	lambda_cid14_p3	lambda_cid14_p4	lambda_cid14_p5	/jointset/ground_pelvis/pelvis_tilt/accel	/jointset/ground_pelvis/pelvis_tx/accel	/jointset/ground_pelvis/pelvis_ty/accel	/jointset/hip_r/hip_flexion_r/accel	/jointset/hip_r/hip_adduction_r/accel	/jointset/hip_r/hip_rotation_r/accel	/jointset/back/lumbar_extension/accel	/jointset/patellofemoral_r/patellar_flexion_r/accel	/jointset/knee_r/knee_flexion_r/accel	/jointset/knee_r/knee_adduction_r/accel	/jointset/knee_r/knee_rotation_r/accel	/jointset/ankle_r/ankle_angle_r/accel	/jointset/subtalar_r/subtalar_angle_r/accel	gamma_cid13_p0	gamma_cid14_p0	gamma_cid14_p1	gamma_cid14_p2	gamma_cid14_p3	gamma_cid14_p4	gamma_cid14_p5
1.5	-0.006779731033480832	0.1138015471340307	0.9490931770108934	0.145025894126284	-0.1537732300234879	-0.1007430567168827	-0.00554533390646584	0.01956124344186101	0.01956124344187849	0.01171491041880416	-0.01795837284570142	0.05052829272393013	0.08444310335776271	0.03291557255646222	-0.03878580884397621	0.002464857999029662	-0.007355258639235372	-0.005950287530000337	-0.01042584504219591	0.08396903001143088	-0.03280649994814205	-0.03280649994813836	0.01713797337304127	0.01052173658858502	-0.06255176388009319	-0.02533845476761417	0.1099784353549534	-0.02415260113085453	0.02331051630586152	-0.1914629096086349	0.1491699305483795	-0.04958989447923628	-0.02705402022855462	-32.60708141051948	1.025473324190059	-25.55909724232821	9.334206779304459	6.240841201081534	-694.8526245088776	39.66663822361564	0.07552933223905221	-0.08509163293244043	0.0002410971358145954	0.04852704384299131	0.01140114061968012	0.01514568699802007	-0.00405099391319565	0.04952975652307834	0.04952975652308086	-0.0277133982364633	-0.007198780940208122	-0.07507915931338929	-0.008423754268155044	1.43089487388485e-11	-3.804738441442209e-11	-2.424729214179279e-10	-1.465466179676254e-10	1.399983410118405e-10	1.904992471378479e-10	2.951904107934469e-10
1.51	-0.006446780772550438	0.1134094707495733	0.9491178398744237	0.1449546953939009	-0.1538321494614927	-0.1008465730111114	-0.004705937088873481	0.01923563654939786	0.01923563654942271	0.01188487927204001	-0.01785351099707592	0.0498990612029395	0.08418932530252277	0.03367331898251676	-0.03962617873036801	0.002467455882629619	-0.0068854405100918	-0.005833506574454176	-0.01027592522514884	0.08390418528120264	-0.03231168392548647	-0.0323116839254701	0.01685502302376054	0.01044930722029848	-0.06328892189491471	-0.02541532474666366	0.1107421311378495	-0.02514049197921876	0.02330708638022966	-0.1926631868902826	0.1509486565850329	-0.04911093483182333	-0.02767873639926299	-32.59257304711851	1.622741381343775	-25.28835218046661	9.338839004576752	6.056856498234758	-694.8506420032866	40.25652804145687	0.07572321064555575	-0.08301623211809651	0.0002303399580365779	0.04606630632337445	0.01183050846926191	0.01513840036064796	-0.008623446327349037	0.04993671849335973	0.04993671849522353	-0.02870206456056137	-0.007463910512772218	-0.07219136523305227	-0.007043945861266958	3.603194090961641e-12	-7.087777856303322e-11	-2.483489477715306e-10	-1.51468091755979e-10	1.697311746848628e-10	1.625742554394229e-10	2.318626855855461e-10
1.52	-0.006106287864774906	0.113009089353127	0.9491425209579873	0.1448881662645815	-0.1538898983028474	-0.1009485454529088	-0.003867373165333567	0.01891507365582869	0.01891507365583823	0.01205199537951769	-0.01774941322126987	0.04926262665326814	0.08393483348226458	0.03442410192281824	-0.04044681124174105	0.002468502005719759	-0.006421338026020447	-0.005716168201023965	-0.01011707455599745	0.08380245120096995	-0.03179770016856945	-0.03179770016854042	0.01656742422300807	0.0103689220224154	-0.06399236961639565	-0.02548120777122865	0.1115058269206331	-0.02612838282757799	0.02330365645463163	-0.1938634641719907	0.152727382621666	-0.04863197518441162	-0.02830345257004751	-32.57828205613478	2.219954336901134	-25.0175764871625	9.343420337678578	5.877427028747905	-694.8452596414012	40.84548293769751	0.07413663508852816	-0.08114415792876203	-6.925496614584174e-05	0.04738391482855826	0.01151262419647299	0.01693185741893482	-0.01142886391403192	0.05336330337538954	0.05336330337539012	-0.02864308853078251	-0.008789946859549655	-0.06833710064535328	-0.006226363371296656	-5.222426421003619e-12	-9.349696439382425e-11	-2.17764962514714e-10	-1.707160480069467e-10	1.852025637756901e-10	1.438033927182609e-10	2.342301046412686e-10
1.53	-0.005758323749629898	0.1126006068817936	0.9491672049417328	0.1448262425768062	-0.1539464707359012	-0.1010488782471156	-0.003030011071394102	0.01859974451749286	0.01859974451751014	0.01221621125981432	-0.01764616623924838	0.04861933334432982	0.08367973996873493	0.03516737576023783	-0.04124574008330234	0.002468043268361359	-0.005964877640615756	-0.005598291991012207	-0.009947691721061806	0.08366378327654432	-0.03126481087061974	-0.03126481087061694	0.01627505819382684	0.01027884942377163	-0.06465981618439315	-0.02553549604454622	0.1123054624741686	-0.02716399505348441	0.0233007325403831	-0.1951498209866115	0.1546282105470579	-0.04812157631945788	-0.02895148535197993	-32.56421717628212	2.858236096496409	-24.73001896883513	9.349967200499757	5.667102232213623	-694.8450922406878	41.46741404492959	0.0742209643825255	-0.0786757691491958	-7.187837590474078e-05	0.04455539137567362	0.01192899434206988	0.01721035286072915	-0.01601340311611816	0.05374924044709281	0.05374924044311011	-0.02963747016873581	-0.009359682102143493	-0.06497705011942705	-0.004730267784925466	-1.20504044135522e-11	-1.052667413869316e-10	-1.484422149218272e-10	-2.051858918744419e-10	1.855211679979355e-10	1.347587920354407e-10	3.063986144770901e-10
